<svg xmlns="http://www.w3.org/2000/svg" viewBox="0 0 24 24" fill="currentColor">
  <!-- G letter -->
  <path d="M12 4C7.58 4 4 7.58 4 12s3.58 8 8 8 8-3.58 8-8h-6v2h3.7c-.7 2.3-2.8 4-5.3 4-3.1 0-5.6-2.5-5.6-5.6S9.3 6.8 12.4 6.8c1.4 0 2.7.5 3.7 1.4l1.4-1.4C16 5.4 14.1 4.6 12 4.6V4z"/>
  <!-- Code brackets -->
  <path d="M8 14l-2 2 2 2" stroke="currentColor" stroke-width="1.5" fill="none" stroke-linecap="round" stroke-linejoin="round"/>
  <path d="M16 14l2 2-2 2" stroke="currentColor" stroke-width="1.5" fill="none" stroke-linecap="round" stroke-linejoin="round"/>
</svg>
