<svg xmlns="http://www.w3.org/2000/svg" viewBox="0 0 128 128">
  <defs>
    <linearGradient id="bgGrad" x1="0%" y1="0%" x2="100%" y2="100%">
      <stop offset="0%" style="stop-color:#1a1a2e"/>
      <stop offset="100%" style="stop-color:#16213e"/>
    </linearGradient>
    <linearGradient id="glowGrad" x1="0%" y1="0%" x2="100%" y2="100%">
      <stop offset="0%" style="stop-color:#00d4ff"/>
      <stop offset="50%" style="stop-color:#0099ff"/>
      <stop offset="100%" style="stop-color:#7c3aed"/>
    </linearGradient>
  </defs>
  
  <!-- Background -->
  <rect width="128" height="128" rx="20" fill="url(#bgGrad)"/>
  
  <!-- Grok "G" stylized -->
  <g transform="translate(20, 20)">
    <!-- Main G shape -->
    <path d="M44 8 C20 8, 8 28, 8 44 C8 60, 20 80, 44 80 C60 80, 72 70, 76 56 L52 56 L52 44 L88 44 L88 56 C88 76, 68 92, 44 92 C12 92, -4 68, -4 44 C-4 20, 12 -4, 44 -4 C64 -4, 80 8, 86 24 L72 32 C68 20, 56 12, 44 12 Z" 
          fill="url(#glowGrad)" 
          transform="translate(0, 0) scale(0.9)"
          opacity="0.9"/>
    
    <!-- Code brackets -->
    <path d="M70 60 L82 72 L70 84" stroke="#00d4ff" stroke-width="4" fill="none" stroke-linecap="round" stroke-linejoin="round"/>
    <path d="M58 60 L46 72 L58 84" stroke="#7c3aed" stroke-width="4" fill="none" stroke-linecap="round" stroke-linejoin="round"/>
  </g>
  
  <!-- Sparkle effects -->
  <circle cx="100" cy="28" r="3" fill="#00d4ff" opacity="0.8"/>
  <circle cx="108" cy="40" r="2" fill="#7c3aed" opacity="0.6"/>
  <circle cx="20" cy="100" r="2" fill="#00d4ff" opacity="0.5"/>
</svg>
